<svg width="76" height="75" viewBox="0 0 76 75" fill="none" xmlns="http://www.w3.org/2000/svg">
<g filter="url(#filter0_d_466_93)">
<rect x="5.5" y="1" width="65" height="65" rx="10" fill="white"/>
<g clip-path="url(#clip0_466_93)">
<path d="M14.2546 30.928H25.5315C28.0666 30.928 29.3341 29.8359 29.3341 27.6516C29.3341 25.4381 28.0666 24.3314 25.5315 24.3314H14.2546V30.928ZM14.2546 42.4611H26.5805C27.95 42.4611 29.0136 42.068 29.7712 41.2816C30.5288 40.4953 30.9076 39.4177 30.9076 38.0488C30.9076 36.7091 30.5288 35.6461 29.7712 34.8598C29.0136 34.0443 27.95 33.6365 26.5805 33.6365H14.2546V42.4611ZM11.3261 45.1697V21.6229H25.2692C29.9606 21.6229 32.3063 23.5742 32.3063 27.4768C32.3063 29.4572 31.5924 30.8989 30.1646 31.8017C32.6997 33.2579 33.9672 35.3549 33.9672 38.0925C33.9672 40.2768 33.2679 42.0097 31.8692 43.2912C30.4705 44.5435 28.5182 45.1697 26.0123 45.1697H11.3261Z" fill="#595961"/>
<path d="M39.184 45.1697V21.6229H41.8939L51.4224 36.0393L60.9946 21.6229H63.6609V45.1697H60.7761V26.7778L51.4224 40.7137L42.0687 26.7778V45.1697H39.184Z" fill="#0A68B2"/>
</g>
</g>
<defs>
<filter id="filter0_d_466_93" x="0.5" y="0" width="75" height="75" filterUnits="userSpaceOnUse" color-interpolation-filters="sRGB">
<feFlood flood-opacity="0" result="BackgroundImageFix"/>
<feColorMatrix in="SourceAlpha" type="matrix" values="0 0 0 0 0 0 0 0 0 0 0 0 0 0 0 0 0 0 127 0" result="hardAlpha"/>
<feOffset dy="4"/>
<feGaussianBlur stdDeviation="2.5"/>
<feComposite in2="hardAlpha" operator="out"/>
<feColorMatrix type="matrix" values="0 0 0 0 0 0 0 0 0 0.294118 0 0 0 0 0.580392 0 0 0 0.03 0"/>
<feBlend mode="normal" in2="BackgroundImageFix" result="effect1_dropShadow_466_93"/>
<feBlend mode="normal" in="SourceGraphic" in2="effect1_dropShadow_466_93" result="shape"/>
</filter>
<clipPath id="clip0_466_93">
<rect width="52" height="25" fill="white" transform="translate(11.5 21)"/>
</clipPath>
</defs>
</svg>
